<?xml version="1.0" standalone="no"?>
<!DOCTYPE svg PUBLIC "-//W3C//DTD SVG 20010904//EN"
 "http://www.w3.org/TR/2001/REC-SVG-20010904/DTD/svg10.dtd">
<svg version="1.0" xmlns="http://www.w3.org/2000/svg"
 width="512.000000pt" height="512.000000pt" viewBox="0 0 512.000000 512.000000"
 preserveAspectRatio="xMidYMid meet">

<g transform="translate(0.000000,512.000000) scale(0.100000,-0.100000)"
fill="#000000" stroke="none">
<path d="M0 3330 l0 -1530 1010 0 1010 0 0 84 c0 151 19 168 194 176 l119 5
27 85 c15 47 41 116 59 154 l31 70 -23 25 c-13 14 -49 54 -80 89 -49 55 -57
69 -57 103 0 38 8 48 196 244 107 112 205 210 217 218 69 44 120 28 218 -69
l76 -75 66 36 c37 20 109 52 159 70 l93 33 5 108 c9 190 -5 184 378 184 385 0
363 11 372 -179 l5 -114 51 -18 c29 -9 100 -39 158 -65 l107 -48 72 71 c40 39
82 76 94 82 30 15 79 14 111 -3 41 -21 410 -409 417 -439 12 -47 -12 -91 -93
-169 l-77 -74 35 -65 c19 -35 49 -104 66 -154 31 -90 32 -90 68 -93 l36 -3 0
1395 0 1396 -2560 0 -2560 0 0 -1530z"/>
<path d="M3540 3001 c0 -103 -1 -110 -25 -134 -17 -16 -54 -33 -103 -46 -108
-29 -187 -61 -308 -126 -143 -76 -156 -75 -264 31 l-65 64 -100 -100 -99 -99
77 -80 c96 -99 99 -119 33 -225 -51 -82 -107 -213 -131 -306 -34 -133 -52
-147 -196 -152 l-104 -4 -3 -142 -3 -142 109 0 c147 0 164 -14 197 -155 21
-91 75 -226 125 -312 61 -104 58 -125 -37 -224 l-77 -80 99 -99 99 -99 71 73
c58 61 77 75 112 81 45 7 43 8 173 -66 92 -52 189 -90 285 -110 44 -9 69 -22
93 -45 l32 -32 0 -106 0 -106 155 0 155 0 0 108 c0 143 7 152 148 193 130 37
206 69 303 125 113 65 132 62 244 -47 l60 -59 98 98 97 97 -58 65 c-98 109
-102 129 -41 240 54 99 105 225 130 324 11 45 28 89 37 100 29 33 77 46 167
46 l85 0 0 140 0 140 -97 0 c-152 0 -156 4 -218 215 -15 50 -53 141 -86 203
-82 157 -81 173 10 273 l70 76 -97 96 -98 97 -44 -46 c-62 -64 -119 -104 -148
-104 -13 0 -72 26 -130 58 -64 34 -167 77 -257 107 -182 61 -185 64 -185 213
l0 92 -145 0 -145 0 0 -109z m362 -693 c100 -38 174 -85 248 -158 73 -74 121
-148 158 -248 31 -83 42 -261 22 -350 -50 -226 -219 -411 -441 -487 -73 -25
-99 -28 -199 -28 -98 -1 -127 3 -195 26 -209 69 -364 224 -432 432 -21 65 -26
100 -27 185 -1 124 13 187 64 296 65 135 190 255 330 314 103 44 139 49 275
46 110 -2 140 -7 197 -28z"/>
<path d="M660 1088 l0 -483 480 480 c264 264 480 481 480 482 0 2 -216 3 -480
3 l-480 0 0 -482z"/>
</g>
</svg>
